<?xml version="1.0" encoding="UTF-8"?>
<svg id="Calque_2" data-name="Calque 2" xmlns="http://www.w3.org/2000/svg" viewBox="0 0 278.73 246">
  <defs>
    <style>
      .cls-1 {
        fill: #b68610;
      }

      .cls-1, .cls-2 {
        stroke-width: 0px;
      }

      .cls-2 {
        fill: #a65130;
      }
    </style>
  </defs>
  <g id="Calque_2-2" data-name="Calque 2">
    <g>
      <path class="cls-1" d="m27.53,4v2c17.2,0,18.4,14.2,18.4,53.6v38.07c.12,0,.25-.02.37-.02h16.83v-38.05c0-39.4,1.2-53.6,18.4-53.6v-2H27.53Z"/>
      <path class="cls-1" d="m45.93,130.08v60.51c0,30.4-10.6,52.8-30.2,52.8-1.2,0-3.2-.2-3.2-.2l-.4,2c2.4.4,3.8.8,7,.8,25.8,0,44-27.2,44-55.8v-60.11h-17.2Z"/>
      <path class="cls-1" d="m135.6,98.2c.52-.18,1.09-.29,1.74-.29h47.94c-34.7-12.71-73.76-20.25-73.76-50.71,0-22.2,20.4-44.8,57.6-44.8,42.8,0,55,33.6,55,33.6h2V9.2c-15.4-5.2-32.4-9.2-57-9.2-46.2,0-71.6,24.2-71.6,52,0,23.62,16.7,36.53,38.08,46.2Z"/>
      <path class="cls-1" d="m210.39,130.61c9.7,7.47,15.93,16.96,15.93,30.19,0,22.2-23,43.6-52.2,43.6-47.6,0-73.8-47.6-73.8-47.6h-2v26.8c14.8,11,38.2,24.4,64.6,24.4,46.2,0,75-27.6,75-55.4,0-8.57-1.9-15.8-5.23-21.99h-22.3Z"/>
    </g>
    <g id="Calque_3" data-name="Calque 3">
      <g>
        <path class="cls-2" d="m6.21,105.34v19.17c0,2.04-.33,3.69-1,4.94-.67,1.25-1.6,2.27-2.81,3.08-.88.56-1.44.84-1.69.84s-.42-.07-.5-.21c-.14-.26-.21-.44-.21-.54s.07-.2.21-.3c1.02-.72,1.67-1.25,1.95-1.59,1-1.06,1.5-2.62,1.5-4.68v-20.7c0-.72-.46-1.12-1.38-1.2l-.87-.09c-.22-.04-.33-.17-.33-.39,0-.28.14-.42.42-.42l3.39.12,2.97-.12c.3,0,.45.12.45.36,0,.28-.13.43-.39.45l-.51.09c-.8.14-1.2.54-1.2,1.2Z"/>
        <path class="cls-2" d="m17.31,116.65v-11.31c0-.72-.46-1.12-1.38-1.2l-.87-.09c-.22-.04-.33-.17-.33-.39,0-.28.14-.42.42-.42l3.39.12,2.97-.12c.3,0,.45.12.45.36,0,.28-.13.43-.39.45l-.51.09c-.8.14-1.2.54-1.2,1.2v11.34c0,1.86.56,3.31,1.68,4.35,1.12,1.04,2.6,1.56,4.42,1.56s3.31-.53,4.44-1.59c1.13-1.06,1.69-2.5,1.69-4.32v-11.34c0-.66-.4-1.06-1.2-1.2l-.51-.09c-.26-.04-.39-.18-.39-.42s.15-.36.45-.36l2.34.09,2.91-.09c.28,0,.42.12.42.36s-.11.38-.33.42l-.87.09c-.92.1-1.38.5-1.38,1.2v11.31c0,2.46-.75,4.42-2.27,5.86-1.51,1.45-3.45,2.18-5.8,2.18s-4.31-.75-5.85-2.25c-1.54-1.5-2.31-3.43-2.31-5.79Z"/>
        <path class="cls-2" d="m47.25,105.34v16.26c0,.42.14.75.41,1s.62.38,1.06.38h4.35c1.06,0,1.97-.25,2.73-.77.76-.51,1.28-1.25,1.56-2.23.1-.32.31-.48.63-.48s.46.18.42.54l-.48,3.12c-.04.34-.18.63-.42.85-.24.23-.55.35-.93.35h-10.65l-3.39.12c-.28,0-.42-.14-.42-.41s.11-.4.33-.4l.87-.06c.4-.04.73-.17.99-.38s.39-.5.39-.85v-17.04c0-.72-.46-1.12-1.38-1.2l-.87-.09c-.22-.04-.33-.17-.33-.39,0-.28.14-.42.42-.42l3.39.12,2.97-.12c.3,0,.45.12.45.36,0,.28-.13.43-.39.45l-.51.09c-.8.14-1.2.54-1.2,1.2Z"/>
        <path class="cls-2" d="m65.07,124.48c-.28,0-.42-.12-.42-.38s.11-.4.33-.44l.51-.06c.82-.1,1.23-.51,1.23-1.23v-17.04c0-.72-.46-1.12-1.38-1.2l-.87-.09c-.22-.04-.33-.17-.33-.39,0-.28.14-.42.42-.42l3.39.12,2.97-.12c.3,0,.45.12.45.36,0,.28-.13.43-.39.45l-.51.09c-.8.14-1.2.54-1.2,1.2v17.04c0,.36.13.65.39.85.26.21.58.33.96.38l.87.06c.24,0,.36.13.36.39,0,.12-.04.22-.13.3-.09.08-.19.12-.29.12l-3.39-.12-2.97.12Z"/>
        <path class="cls-2" d="m92.91,124.36h-11.25l-3.39.12c-.28,0-.42-.14-.42-.41s.11-.4.33-.4l.87-.06c.4-.04.73-.17.99-.38s.39-.5.39-.85v-17.04c0-.72-.46-1.12-1.38-1.2l-.87-.09c-.22,0-.33-.13-.33-.4s.14-.41.42-.41l3.39.12h10.65c.38,0,.69.12.93.35.24.23.38.52.42.85l.42,2.76c.04.36-.1.54-.44.54s-.54-.16-.65-.48c-.3-.96-.75-1.64-1.35-2.04-.6-.4-1.43-.6-2.49-.6h-4.71c-.44,0-.79.13-1.06.38-.27.25-.41.6-.41,1.04v6.3c0,.26.13.39.39.39h5.58c.28,0,.5-.07.66-.21.16-.14.26-.27.31-.39.05-.12.12-.34.23-.66l.12-.39c.06-.24.21-.36.45-.36s.36.14.36.42l-.12,2.55.12,2.43c0,.26-.13.41-.39.45-.24,0-.38-.12-.42-.36l-.09-.54c-.18-1.04-.59-1.56-1.23-1.56h-5.61c-.24,0-.36.14-.36.42v6.96c0,.42.14.75.41,1s.62.38,1.06.38h4.95c1.04,0,1.93-.25,2.68-.77.75-.51,1.28-1.25,1.58-2.23.1-.32.26-.48.5-.48s.39.06.48.17.12.24.1.38l-.48,3.12c-.04.34-.19.63-.44.85-.25.23-.56.35-.92.35Z"/>
        <path class="cls-2" d="m110.76,105.55v16.83c0,.36.13.65.39.85.26.21.58.33.96.38l.87.06c.24,0,.36.13.36.39,0,.12-.04.22-.13.3-.09.08-.19.12-.29.12l-3.39-.12-3.72.12c-.1,0-.2-.04-.29-.12s-.13-.18-.13-.3c0-.26.12-.39.36-.39l1.11-.06c.38-.04.7-.17.96-.38.26-.21.39-.5.39-.85v-16.83c0-.54-.25-.81-.75-.81h-2.52c-.98,0-1.75.27-2.31.79-.56.53-1,1.32-1.32,2.35-.12.3-.29.45-.5.45s-.37-.05-.46-.17c-.1-.11-.14-.23-.12-.38l.24-3.87c.04-.38.26-.57.66-.57h16.62c.42,0,.65.24.69.72l.3,3.72c.02.16-.02.29-.12.39-.1.1-.26.15-.47.15s-.38-.15-.49-.45c-.36-1.06-.82-1.85-1.37-2.37-.55-.52-1.31-.78-2.27-.78h-2.52c-.5,0-.75.27-.75.81Z"/>
        <path class="cls-2" d="m133.59,105.55v16.83c0,.36.13.65.39.85.26.21.58.33.96.38l.87.06c.24,0,.36.13.36.39,0,.12-.04.22-.13.3-.09.08-.19.12-.29.12l-3.39-.12-3.72.12c-.1,0-.2-.04-.29-.12s-.13-.18-.13-.3c0-.26.12-.39.36-.39l1.11-.06c.38-.04.7-.17.96-.38.26-.21.39-.5.39-.85v-16.83c0-.54-.25-.81-.75-.81h-2.52c-.98,0-1.75.27-2.31.79-.56.53-1,1.32-1.32,2.35-.12.3-.29.45-.5.45s-.37-.05-.46-.17c-.1-.11-.14-.23-.12-.38l.24-3.87c.04-.38.26-.57.66-.57h16.62c.42,0,.65.24.69.72l.3,3.72c.02.16-.02.29-.12.39-.1.1-.26.15-.47.15s-.38-.15-.49-.45c-.36-1.06-.82-1.85-1.37-2.37-.55-.52-1.31-.78-2.27-.78h-2.52c-.5,0-.75.27-.75.81Z"/>
        <path class="cls-2" d="m161.79,124.36h-11.25l-3.39.12c-.28,0-.42-.14-.42-.41s.11-.4.33-.4l.87-.06c.4-.04.73-.17.99-.38s.39-.5.39-.85v-17.04c0-.72-.46-1.12-1.38-1.2l-.87-.09c-.22,0-.33-.13-.33-.4s.14-.41.42-.41l3.39.12h10.65c.38,0,.69.12.93.35s.38.52.42.85l.42,2.76c.04.36-.1.54-.43.54s-.54-.16-.65-.48c-.3-.96-.75-1.64-1.35-2.04-.6-.4-1.43-.6-2.49-.6h-4.71c-.44,0-.79.13-1.06.38-.27.25-.41.6-.41,1.04v6.3c0,.26.13.39.39.39h5.58c.28,0,.5-.07.66-.21.16-.14.26-.27.32-.39.05-.12.12-.34.22-.66l.12-.39c.06-.24.21-.36.45-.36s.36.14.36.42l-.12,2.55.12,2.43c0,.26-.13.41-.39.45-.24,0-.38-.12-.42-.36l-.09-.54c-.18-1.04-.59-1.56-1.23-1.56h-5.61c-.24,0-.36.14-.36.42v6.96c0,.42.13.75.41,1,.27.25.62.38,1.06.38h4.95c1.04,0,1.93-.25,2.68-.77.75-.51,1.28-1.25,1.58-2.23.1-.32.26-.48.5-.48s.39.06.48.17.12.24.1.38l-.48,3.12c-.04.34-.19.63-.44.85-.25.23-.55.35-.92.35Z"/>
        <path class="cls-2" d="m195.78,118.93c0,1.88-.71,3.31-2.12,4.29-1.41.98-3.12,1.47-5.13,1.47s-3.66-.24-4.95-.72-1.93-1.01-1.93-1.59v-3.51c0-.42.16-.63.48-.63.26,0,.44.19.54.57.52,1.54,1.2,2.68,2.03,3.43.83.75,2,1.12,3.5,1.12s2.71-.34,3.64-1.02c.93-.68,1.4-1.62,1.4-2.82,0-1.32-.74-2.43-2.22-3.33-.66-.4-1.39-.79-2.19-1.17-.8-.38-1.6-.77-2.4-1.19-.8-.41-1.53-.85-2.19-1.33-1.48-1.08-2.22-2.44-2.22-4.09s.63-2.96,1.91-3.93c1.27-.97,2.76-1.46,4.49-1.46s3.18.22,4.38.65c1.2.43,1.8.91,1.8,1.43v3.03c0,.4-.14.6-.43.6s-.51-.2-.64-.6c-.42-1.28-.97-2.23-1.65-2.85-.68-.62-1.7-.93-3.05-.93s-2.41.32-3.19.96-1.17,1.44-1.17,2.38.39,1.77,1.17,2.46,1.72,1.3,2.83,1.83c1.11.53,2.22,1.08,3.33,1.65,1.11.57,2.06,1.31,2.83,2.21.78.9,1.17,1.93,1.17,3.09Z"/>
        <path class="cls-2" d="m217.44,124.36h-11.25l-3.39.12c-.28,0-.42-.14-.42-.41s.11-.4.33-.4l.87-.06c.4-.04.73-.17.99-.38s.39-.5.39-.85v-17.04c0-.72-.46-1.12-1.38-1.2l-.87-.09c-.22,0-.33-.13-.33-.4s.14-.41.42-.41l3.39.12h10.65c.38,0,.69.12.93.35s.38.52.42.85l.42,2.76c.04.36-.1.54-.43.54s-.55-.16-.65-.48c-.3-.96-.75-1.64-1.35-2.04-.6-.4-1.43-.6-2.49-.6h-4.71c-.44,0-.79.13-1.07.38-.27.25-.4.6-.4,1.04v6.3c0,.26.13.39.39.39h5.58c.28,0,.5-.07.66-.21.16-.14.26-.27.31-.39s.12-.34.23-.66l.12-.39c.06-.24.21-.36.45-.36s.36.14.36.42l-.12,2.55.12,2.43c0,.26-.13.41-.39.45-.24,0-.38-.12-.42-.36l-.09-.54c-.18-1.04-.59-1.56-1.23-1.56h-5.61c-.24,0-.36.14-.36.42v6.96c0,.42.13.75.4,1,.27.25.62.38,1.07.38h4.95c1.04,0,1.93-.25,2.68-.77.75-.51,1.28-1.25,1.58-2.23.1-.32.26-.48.5-.48s.39.06.48.17c.09.11.12.24.11.38l-.48,3.12c-.04.34-.18.63-.43.85-.25.23-.55.35-.92.35Z"/>
        <path class="cls-2" d="m243.09,119.89v-14.55c0-.7-.45-1.1-1.35-1.2l-.87-.09c-.22-.04-.33-.18-.33-.42s.14-.36.42-.36l2.91.09,2.34-.09c.3,0,.45.12.45.36s-.13.38-.39.42l-.51.09c-.8.14-1.2.54-1.2,1.2v18.99c0,.24-.11.36-.33.36h-.39c-.5,0-.93-.24-1.29-.72l-12.63-16.17s-.1-.06-.18-.06-.12.1-.12.3v14.34c0,.66.4,1.06,1.2,1.2l.51.09c.26.04.39.18.39.42s-.15.36-.45.36l-2.34-.09-2.91.09c-.28,0-.42-.12-.42-.36s.11-.38.33-.42l.87-.09c.92-.1,1.38-.5,1.38-1.2v-17.04c0-.7-.4-1.1-1.2-1.2l-.54-.06c-.24-.04-.36-.19-.36-.44s.15-.38.45-.38l2.4.09c.58.02,1.02.21,1.32.57l12.51,16.05c.06.06.13.09.21.09s.12-.06.12-.18Z"/>
        <path class="cls-2" d="m264.27,103.03c1.68,0,3.21.23,4.58.69,1.37.46,2.05.91,2.05,1.35v3.42c0,.14-.04.28-.13.41-.09.13-.21.19-.34.19-.34,0-.56-.2-.66-.6-.36-1.34-1.03-2.39-2.01-3.15-.98-.76-2.14-1.14-3.48-1.14-2.48,0-4.46.83-5.92,2.49s-2.21,3.77-2.21,6.33c0,1.68.33,3.3.99,4.86s1.6,2.85,2.83,3.85c1.23,1.01,2.59,1.52,4.08,1.52s2.75-.3,3.78-.92c1.03-.61,1.54-1.25,1.54-1.94v-3.72c0-.76-.45-1.16-1.35-1.2l-1.62-.09c-.22,0-.33-.13-.33-.4s.13-.4.39-.4l4.08.12,2.97-.12c.28,0,.42.12.42.36,0,.28-.12.43-.36.45l-.51.09c-.8.14-1.2.54-1.2,1.2v5.79l.18,1.68c.04.36-.11.54-.45.54-.22,0-.4-.13-.54-.39-.32-.72-.85-1.08-1.59-1.08-.16,0-.46.12-.9.36-1.36.74-2.96,1.11-4.8,1.11-3.12,0-5.65-1.03-7.59-3.09-1.94-2.06-2.91-4.65-2.91-7.76s1.02-5.69,3.06-7.74c2.04-2.05,4.69-3.08,7.95-3.08Z"/>
      </g>
    </g>
  </g>
</svg>