<?xml version="1.0" encoding="UTF-8"?>
<svg id="Calque_2" data-name="Calque 2" xmlns="http://www.w3.org/2000/svg" viewBox="0 0 278.87 273.32">
  <defs>
    <style>
      .cls-1 {
        fill: #b68610;
      }

      .cls-1, .cls-2 {
        stroke-width: 0px;
      }

      .cls-2 {
        fill: #a65130;
      }
    </style>
  </defs>
  <g id="Calque_2-2" data-name="Calque 2">
    <g>
      <path class="cls-1" d="m27.67,4v2c17.2,0,18.4,14.2,18.4,53.6v38.07c.12,0,.25-.02.37-.02h16.83v-38.05c0-39.4,1.2-53.6,18.4-53.6v-2H27.67Z"/>
      <path class="cls-1" d="m46.07,130.08v60.51c0,30.4-10.6,52.8-30.2,52.8-1.2,0-3.2-.2-3.2-.2l-.4,2c2.4.4,3.8.8,7,.8,25.8,0,44-27.2,44-55.8v-60.11h-17.2Z"/>
      <path class="cls-1" d="m135.74,98.2c.52-.18,1.09-.29,1.74-.29h47.94c-34.7-12.71-73.76-20.25-73.76-50.71,0-22.2,20.4-44.8,57.6-44.8,42.8,0,55,33.6,55,33.6h2V9.2c-15.4-5.2-32.4-9.2-57-9.2-46.2,0-71.6,24.2-71.6,52,0,23.62,16.7,36.53,38.08,46.2Z"/>
      <path class="cls-1" d="m210.53,130.61c9.7,7.47,15.93,16.96,15.93,30.19,0,22.2-23,43.6-52.2,43.6-47.6,0-73.8-47.6-73.8-47.6h-2v26.8c14.8,11,38.2,24.4,64.6,24.4,46.2,0,75-27.6,75-55.4,0-8.57-1.9-15.8-5.23-21.99h-22.3Z"/>
    </g>
    <g id="Calque_3" data-name="Calque 3">
      <g>
        <path class="cls-2" d="m6.35,105.34v19.17c0,2.04-.33,3.69-1,4.94-.67,1.25-1.6,2.27-2.81,3.08-.88.56-1.44.84-1.69.84s-.42-.07-.5-.21c-.14-.26-.21-.44-.21-.54s.07-.2.21-.3c1.02-.72,1.67-1.25,1.95-1.59,1-1.06,1.5-2.62,1.5-4.68v-20.7c0-.72-.46-1.12-1.38-1.2l-.87-.09c-.22-.04-.33-.17-.33-.39,0-.28.14-.42.42-.42l3.39.12,2.97-.12c.3,0,.45.12.45.36,0,.28-.13.43-.39.45l-.51.09c-.8.14-1.2.54-1.2,1.2Z"/>
        <path class="cls-2" d="m17.45,116.65v-11.31c0-.72-.46-1.12-1.38-1.2l-.87-.09c-.22-.04-.33-.17-.33-.39,0-.28.14-.42.42-.42l3.39.12,2.97-.12c.3,0,.45.12.45.36,0,.28-.13.43-.39.45l-.51.09c-.8.14-1.2.54-1.2,1.2v11.34c0,1.86.56,3.31,1.68,4.35,1.12,1.04,2.6,1.56,4.42,1.56s3.31-.53,4.44-1.59c1.13-1.06,1.69-2.5,1.69-4.32v-11.34c0-.66-.4-1.06-1.2-1.2l-.51-.09c-.26-.04-.39-.18-.39-.42s.15-.36.45-.36l2.34.09,2.91-.09c.28,0,.42.12.42.36s-.11.38-.33.42l-.87.09c-.92.1-1.38.5-1.38,1.2v11.31c0,2.46-.75,4.42-2.27,5.86-1.51,1.45-3.45,2.18-5.8,2.18s-4.31-.75-5.85-2.25c-1.54-1.5-2.31-3.43-2.31-5.79Z"/>
        <path class="cls-2" d="m47.39,105.34v16.26c0,.42.14.75.41,1s.62.38,1.06.38h4.35c1.06,0,1.97-.25,2.73-.77.76-.51,1.28-1.25,1.56-2.23.1-.32.31-.48.63-.48s.46.18.42.54l-.48,3.12c-.04.34-.18.63-.42.85-.24.23-.55.35-.93.35h-10.65l-3.39.12c-.28,0-.42-.14-.42-.41s.11-.4.33-.4l.87-.06c.4-.04.73-.17.99-.38s.39-.5.39-.85v-17.04c0-.72-.46-1.12-1.38-1.2l-.87-.09c-.22-.04-.33-.17-.33-.39,0-.28.14-.42.42-.42l3.39.12,2.97-.12c.3,0,.45.12.45.36,0,.28-.13.43-.39.45l-.51.09c-.8.14-1.2.54-1.2,1.2Z"/>
        <path class="cls-2" d="m65.21,124.48c-.28,0-.42-.12-.42-.38s.11-.4.33-.44l.51-.06c.82-.1,1.23-.51,1.23-1.23v-17.04c0-.72-.46-1.12-1.38-1.2l-.87-.09c-.22-.04-.33-.17-.33-.39,0-.28.14-.42.42-.42l3.39.12,2.97-.12c.3,0,.45.12.45.36,0,.28-.13.43-.39.45l-.51.09c-.8.14-1.2.54-1.2,1.2v17.04c0,.36.13.65.39.85.26.21.58.33.96.38l.87.06c.24,0,.36.13.36.39,0,.12-.04.22-.13.3-.09.08-.19.12-.29.12l-3.39-.12-2.97.12Z"/>
        <path class="cls-2" d="m93.05,124.36h-11.25l-3.39.12c-.28,0-.42-.14-.42-.41s.11-.4.33-.4l.87-.06c.4-.04.73-.17.99-.38s.39-.5.39-.85v-17.04c0-.72-.46-1.12-1.38-1.2l-.87-.09c-.22,0-.33-.13-.33-.4s.14-.41.42-.41l3.39.12h10.65c.38,0,.69.12.93.35.24.23.38.52.42.85l.42,2.76c.04.36-.1.54-.44.54s-.54-.16-.65-.48c-.3-.96-.75-1.64-1.35-2.04-.6-.4-1.43-.6-2.49-.6h-4.71c-.44,0-.79.13-1.06.38-.27.25-.41.6-.41,1.04v6.3c0,.26.13.39.39.39h5.58c.28,0,.5-.07.66-.21.16-.14.26-.27.31-.39.05-.12.12-.34.23-.66l.12-.39c.06-.24.21-.36.45-.36s.36.14.36.42l-.12,2.55.12,2.43c0,.26-.13.41-.39.45-.24,0-.38-.12-.42-.36l-.09-.54c-.18-1.04-.59-1.56-1.23-1.56h-5.61c-.24,0-.36.14-.36.42v6.96c0,.42.14.75.41,1s.62.38,1.06.38h4.95c1.04,0,1.93-.25,2.68-.77.75-.51,1.28-1.25,1.58-2.23.1-.32.26-.48.5-.48s.39.06.48.17.12.24.1.38l-.48,3.12c-.04.34-.19.63-.44.85-.25.23-.56.35-.92.35Z"/>
        <path class="cls-2" d="m110.9,105.55v16.83c0,.36.13.65.39.85.26.21.58.33.96.38l.87.06c.24,0,.36.13.36.39,0,.12-.04.22-.13.3-.09.08-.19.12-.29.12l-3.39-.12-3.72.12c-.1,0-.2-.04-.29-.12s-.13-.18-.13-.3c0-.26.12-.39.36-.39l1.11-.06c.38-.04.7-.17.96-.38.26-.21.39-.5.39-.85v-16.83c0-.54-.25-.81-.75-.81h-2.52c-.98,0-1.75.27-2.31.79-.56.53-1,1.32-1.32,2.35-.12.3-.29.45-.5.45s-.37-.05-.46-.17c-.1-.11-.14-.23-.12-.38l.24-3.87c.04-.38.26-.57.66-.57h16.62c.42,0,.65.24.69.72l.3,3.72c.02.16-.02.29-.12.39-.1.1-.26.15-.47.15s-.38-.15-.49-.45c-.36-1.06-.82-1.85-1.37-2.37-.55-.52-1.31-.78-2.27-.78h-2.52c-.5,0-.75.27-.75.81Z"/>
        <path class="cls-2" d="m133.73,105.55v16.83c0,.36.13.65.39.85.26.21.58.33.96.38l.87.06c.24,0,.36.13.36.39,0,.12-.04.22-.13.3-.09.08-.19.12-.29.12l-3.39-.12-3.72.12c-.1,0-.2-.04-.29-.12s-.13-.18-.13-.3c0-.26.12-.39.36-.39l1.11-.06c.38-.04.7-.17.96-.38.26-.21.39-.5.39-.85v-16.83c0-.54-.25-.81-.75-.81h-2.52c-.98,0-1.75.27-2.31.79-.56.53-1,1.32-1.32,2.35-.12.3-.29.45-.5.45s-.37-.05-.46-.17c-.1-.11-.14-.23-.12-.38l.24-3.87c.04-.38.26-.57.66-.57h16.62c.42,0,.65.24.69.72l.3,3.72c.02.16-.02.29-.12.39-.1.1-.26.15-.47.15s-.38-.15-.49-.45c-.36-1.06-.82-1.85-1.37-2.37-.55-.52-1.31-.78-2.27-.78h-2.52c-.5,0-.75.27-.75.81Z"/>
        <path class="cls-2" d="m161.93,124.36h-11.25l-3.39.12c-.28,0-.42-.14-.42-.41s.11-.4.33-.4l.87-.06c.4-.04.73-.17.99-.38s.39-.5.39-.85v-17.04c0-.72-.46-1.12-1.38-1.2l-.87-.09c-.22,0-.33-.13-.33-.4s.14-.41.42-.41l3.39.12h10.65c.38,0,.69.12.93.35s.38.52.42.85l.42,2.76c.04.36-.1.54-.43.54s-.54-.16-.65-.48c-.3-.96-.75-1.64-1.35-2.04-.6-.4-1.43-.6-2.49-.6h-4.71c-.44,0-.79.13-1.06.38-.27.25-.41.6-.41,1.04v6.3c0,.26.13.39.39.39h5.58c.28,0,.5-.07.66-.21.16-.14.26-.27.32-.39.05-.12.12-.34.22-.66l.12-.39c.06-.24.21-.36.45-.36s.36.14.36.42l-.12,2.55.12,2.43c0,.26-.13.41-.39.45-.24,0-.38-.12-.42-.36l-.09-.54c-.18-1.04-.59-1.56-1.23-1.56h-5.61c-.24,0-.36.14-.36.42v6.96c0,.42.13.75.41,1,.27.25.62.38,1.06.38h4.95c1.04,0,1.93-.25,2.68-.77.75-.51,1.28-1.25,1.58-2.23.1-.32.26-.48.5-.48s.39.06.48.17.12.24.1.38l-.48,3.12c-.04.34-.19.63-.44.85-.25.23-.55.35-.92.35Z"/>
        <path class="cls-2" d="m195.92,118.93c0,1.88-.71,3.31-2.12,4.29-1.41.98-3.12,1.47-5.13,1.47s-3.66-.24-4.95-.72-1.93-1.01-1.93-1.59v-3.51c0-.42.16-.63.48-.63.26,0,.44.19.54.57.52,1.54,1.2,2.68,2.03,3.43.83.75,2,1.12,3.5,1.12s2.71-.34,3.64-1.02c.93-.68,1.4-1.62,1.4-2.82,0-1.32-.74-2.43-2.22-3.33-.66-.4-1.39-.79-2.19-1.17-.8-.38-1.6-.77-2.4-1.19-.8-.41-1.53-.85-2.19-1.33-1.48-1.08-2.22-2.44-2.22-4.09s.63-2.96,1.91-3.93c1.27-.97,2.76-1.46,4.49-1.46s3.18.22,4.38.65c1.2.43,1.8.91,1.8,1.43v3.03c0,.4-.14.6-.43.6s-.51-.2-.64-.6c-.42-1.28-.97-2.23-1.65-2.85-.68-.62-1.7-.93-3.05-.93s-2.41.32-3.19.96-1.17,1.44-1.17,2.38.39,1.77,1.17,2.46,1.72,1.3,2.83,1.83c1.11.53,2.22,1.08,3.33,1.65,1.11.57,2.06,1.31,2.83,2.21.78.9,1.17,1.93,1.17,3.09Z"/>
        <path class="cls-2" d="m217.58,124.36h-11.25l-3.39.12c-.28,0-.42-.14-.42-.41s.11-.4.33-.4l.87-.06c.4-.04.73-.17.99-.38s.39-.5.39-.85v-17.04c0-.72-.46-1.12-1.38-1.2l-.87-.09c-.22,0-.33-.13-.33-.4s.14-.41.42-.41l3.39.12h10.65c.38,0,.69.12.93.35s.38.52.42.85l.42,2.76c.04.36-.1.54-.43.54s-.55-.16-.65-.48c-.3-.96-.75-1.64-1.35-2.04-.6-.4-1.43-.6-2.49-.6h-4.71c-.44,0-.79.13-1.07.38-.27.25-.4.6-.4,1.04v6.3c0,.26.13.39.39.39h5.58c.28,0,.5-.07.66-.21.16-.14.26-.27.31-.39s.12-.34.23-.66l.12-.39c.06-.24.21-.36.45-.36s.36.14.36.42l-.12,2.55.12,2.43c0,.26-.13.41-.39.45-.24,0-.38-.12-.42-.36l-.09-.54c-.18-1.04-.59-1.56-1.23-1.56h-5.61c-.24,0-.36.14-.36.42v6.96c0,.42.13.75.4,1,.27.25.62.38,1.07.38h4.95c1.04,0,1.93-.25,2.68-.77.75-.51,1.28-1.25,1.58-2.23.1-.32.26-.48.5-.48s.39.06.48.17c.09.11.12.24.11.38l-.48,3.12c-.04.34-.18.63-.43.85-.25.23-.55.35-.92.35Z"/>
        <path class="cls-2" d="m243.23,119.89v-14.55c0-.7-.45-1.1-1.35-1.2l-.87-.09c-.22-.04-.33-.18-.33-.42s.14-.36.42-.36l2.91.09,2.34-.09c.3,0,.45.12.45.36s-.13.38-.39.42l-.51.09c-.8.14-1.2.54-1.2,1.2v18.99c0,.24-.11.36-.33.36h-.39c-.5,0-.93-.24-1.29-.72l-12.63-16.17s-.1-.06-.18-.06-.12.1-.12.3v14.34c0,.66.4,1.06,1.2,1.2l.51.09c.26.04.39.18.39.42s-.15.36-.45.36l-2.34-.09-2.91.09c-.28,0-.42-.12-.42-.36s.11-.38.33-.42l.87-.09c.92-.1,1.38-.5,1.38-1.2v-17.04c0-.7-.4-1.1-1.2-1.2l-.54-.06c-.24-.04-.36-.19-.36-.44s.15-.38.45-.38l2.4.09c.58.02,1.02.21,1.32.57l12.51,16.05c.06.06.13.09.21.09s.12-.06.12-.18Z"/>
        <path class="cls-2" d="m264.41,103.03c1.68,0,3.21.23,4.58.69,1.37.46,2.05.91,2.05,1.35v3.42c0,.14-.04.28-.13.41-.09.13-.21.19-.34.19-.34,0-.56-.2-.66-.6-.36-1.34-1.03-2.39-2.01-3.15-.98-.76-2.14-1.14-3.48-1.14-2.48,0-4.46.83-5.92,2.49s-2.21,3.77-2.21,6.33c0,1.68.33,3.3.99,4.86s1.6,2.85,2.83,3.85c1.23,1.01,2.59,1.52,4.08,1.52s2.75-.3,3.78-.92c1.03-.61,1.54-1.25,1.54-1.94v-3.72c0-.76-.45-1.16-1.35-1.2l-1.62-.09c-.22,0-.33-.13-.33-.4s.13-.4.39-.4l4.08.12,2.97-.12c.28,0,.42.12.42.36,0,.28-.12.43-.36.45l-.51.09c-.8.14-1.2.54-1.2,1.2v5.79l.18,1.68c.04.36-.11.54-.45.54-.22,0-.4-.13-.54-.39-.32-.72-.85-1.08-1.59-1.08-.16,0-.46.12-.9.36-1.36.74-2.96,1.11-4.8,1.11-3.12,0-5.65-1.03-7.59-3.09-1.94-2.06-2.91-4.65-2.91-7.76s1.02-5.69,3.06-7.74c2.04-2.05,4.69-3.08,7.95-3.08Z"/>
      </g>
      <g>
        <path class="cls-2" d="m2.02,267.82c-.02.06-.03.12-.03.19s.04.15.11.24.18.14.31.15l.31.03c.12.02.18.08.18.18,0,.13-.07.2-.21.2l-1.22-.06-1.27.06c-.13,0-.2-.06-.2-.19s.05-.19.15-.19l.27-.03c.4-.05.67-.24.81-.57l3.6-8.86c.04-.11.15-.17.33-.17s.3.06.34.17l3.58,8.86c.12.34.39.54.8.57l.29.03s.07.02.1.06c.03.04.04.08.04.11,0,.14-.07.21-.2.21l-1.61-.06-1.44.06c-.13,0-.2-.06-.2-.17,0-.13.06-.2.17-.21l.32-.03c.12,0,.22-.06.3-.14s.12-.16.12-.24-.01-.14-.04-.2l-.83-2.14c-.03-.09-.1-.14-.22-.14h-3.63c-.11,0-.19.05-.22.14l-.83,2.14Zm1.3-2.93h3.12c.1,0,.14-.06.1-.17l-1.67-4.28-1.67,4.31c-.03.09,0,.14.11.14Z"/>
        <path class="cls-2" d="m20.48,260.24c.89.86,1.33,2.01,1.33,3.44s-.46,2.63-1.38,3.61c-.92.97-2.09,1.46-3.52,1.46h-2.41l-1.75.07c-.13,0-.2-.06-.2-.19s.05-.19.15-.19l.41-.03c.19-.02.34-.08.46-.18.12-.1.18-.23.18-.4v-7.97c0-.34-.21-.52-.64-.56l-.41-.04c-.1-.02-.15-.08-.15-.18,0-.13.07-.2.2-.2l1.75.06h2.41c1.49,0,2.68.43,3.57,1.29Zm-.81.8c-.28-.45-.66-.8-1.13-1.06-.48-.26-1.02-.39-1.64-.39h-1.26c-.21,0-.37.06-.5.17s-.19.28-.19.49v7.21c0,.2.06.35.19.47.13.12.29.17.5.17h1.33c1.07,0,1.93-.37,2.58-1.11.64-.74.97-1.69.97-2.87s-.28-2.2-.84-3.08Z"/>
        <path class="cls-2" d="m37.56,268.6c0,.06-.02.1-.06.14s-.09.06-.13.06l-1.58-.06-1.39.06c-.13,0-.2-.06-.2-.17s.05-.18.15-.2l.24-.03c.39-.05.59-.24.59-.57l-.11-6.62c0-.09-.03-.14-.08-.14-.03,0-.05.01-.06.04l-3.81,7.62c-.05.08-.1.13-.17.13s-.12-.04-.15-.13l-3.82-7.39s-.03-.04-.06-.04c-.06,0-.08.05-.08.14l-.08,6.4c0,.31.19.49.56.56l.24.04c.12.02.18.08.18.2s-.07.17-.21.17l-1.15-.04-1.36.04c-.13,0-.2-.06-.2-.17s.05-.18.15-.2l.41-.04c.43-.05.64-.23.64-.56l.17-7.95c0-.33-.18-.51-.56-.56l-.25-.03c-.11-.02-.17-.09-.17-.2s.07-.17.21-.17l1.23.04c.32,0,.52.1.6.28l3.96,7.84,3.86-7.84c.08-.17.29-.26.62-.28l1.25-.04c.15,0,.22.06.22.17s-.06.18-.17.2l-.25.03c-.36.03-.55.21-.55.56l.17,7.95c0,.17.06.3.18.4.12.1.26.16.44.17l.41.03c.11,0,.17.06.17.18Z"/>
        <path class="cls-2" d="m40.73,268.8c-.13,0-.2-.06-.2-.17s.05-.18.15-.2l.24-.03c.38-.05.57-.24.57-.57v-7.95c0-.34-.21-.52-.64-.56l-.41-.04c-.1-.02-.15-.08-.15-.18,0-.13.07-.2.2-.2l1.58.06,1.39-.06c.14,0,.21.06.21.17,0,.13-.06.2-.18.21l-.24.04c-.37.07-.56.25-.56.56v7.95c0,.17.06.3.18.4.12.1.27.16.45.17l.41.03c.11,0,.17.06.17.18,0,.06-.02.1-.06.14s-.09.06-.13.06l-1.58-.06-1.39.06Z"/>
        <path class="cls-2" d="m54.85,266.66v-6.79c0-.33-.21-.51-.63-.56l-.41-.04c-.1-.02-.15-.08-.15-.2s.06-.17.2-.17l1.36.04,1.09-.04c.14,0,.21.06.21.17s-.06.18-.18.2l-.24.04c-.37.07-.56.25-.56.56v8.86c0,.11-.05.17-.15.17h-.18c-.23,0-.43-.11-.6-.34l-5.89-7.55s-.05-.03-.08-.03-.06.05-.06.14v6.69c0,.31.19.49.56.56l.24.04c.12.02.18.08.18.2s-.07.17-.21.17l-1.09-.04-1.36.04c-.13,0-.2-.06-.2-.17s.05-.18.15-.2l.41-.04c.43-.05.64-.23.64-.56v-7.95c0-.33-.19-.51-.56-.56l-.25-.03c-.11-.02-.17-.09-.17-.2s.07-.17.21-.17l1.12.04c.27,0,.48.1.62.27l5.84,7.49s.06.04.1.04.06-.03.06-.08Z"/>
        <path class="cls-2" d="m59.75,268.8c-.13,0-.2-.06-.2-.17s.05-.18.15-.2l.24-.03c.38-.05.57-.24.57-.57v-7.95c0-.34-.21-.52-.64-.56l-.41-.04c-.1-.02-.15-.08-.15-.18,0-.13.07-.2.2-.2l1.58.06,1.39-.06c.14,0,.21.06.21.17,0,.13-.06.2-.18.21l-.24.04c-.37.07-.56.25-.56.56v7.95c0,.17.06.3.18.4.12.1.27.16.45.17l.41.03c.11,0,.17.06.17.18,0,.06-.02.1-.06.14s-.09.06-.13.06l-1.58-.06-1.39.06Z"/>
        <path class="cls-2" d="m72.59,266.21c0,.88-.33,1.54-.99,2-.66.46-1.46.69-2.39.69s-1.71-.11-2.31-.34c-.6-.22-.9-.47-.9-.74v-1.64c0-.2.07-.29.22-.29.12,0,.21.09.25.27.24.72.56,1.25.95,1.6.39.35.93.53,1.63.53s1.27-.16,1.7-.48.65-.76.65-1.32c0-.62-.35-1.13-1.04-1.55-.31-.19-.65-.37-1.02-.55-.37-.18-.75-.36-1.12-.55-.37-.19-.71-.4-1.02-.62-.69-.5-1.04-1.14-1.04-1.91s.3-1.38.89-1.83c.59-.45,1.29-.68,2.09-.68s1.48.1,2.04.3c.56.2.84.42.84.67v1.41c0,.19-.07.28-.2.28s-.24-.09-.3-.28c-.2-.6-.45-1.04-.77-1.33s-.79-.43-1.42-.43-1.13.15-1.49.45c-.36.3-.55.67-.55,1.11s.18.83.55,1.15c.36.32.81.61,1.32.85s1.04.5,1.55.77c.52.27.96.61,1.32,1.03.36.42.55.9.55,1.44Z"/>
        <path class="cls-2" d="m80.19,259.97v7.85c0,.17.06.3.18.4.12.1.27.16.45.17l.41.03c.11,0,.17.06.17.18,0,.06-.02.1-.06.14s-.09.06-.13.06l-1.58-.06-1.74.06s-.09-.02-.13-.06-.06-.08-.06-.14c0-.12.06-.18.17-.18l.52-.03c.18-.02.33-.08.45-.17.12-.1.18-.23.18-.4v-7.85c0-.25-.12-.38-.35-.38h-1.18c-.46,0-.82.12-1.08.37s-.47.61-.62,1.1c-.06.14-.13.21-.23.21s-.17-.03-.22-.08c-.05-.05-.07-.11-.06-.17l.11-1.81c.02-.18.12-.27.31-.27h7.76c.2,0,.3.11.32.34l.14,1.74c0,.08,0,.14-.06.18s-.12.07-.22.07-.18-.07-.23-.21c-.17-.49-.38-.86-.64-1.11-.26-.24-.61-.36-1.06-.36h-1.18c-.23,0-.35.13-.35.38Z"/>
        <path class="cls-2" d="m91.07,258.95c.9,0,1.63.23,2.21.69.57.46.86,1.06.86,1.81s-.28,1.37-.85,1.86c-.56.49-1.19.74-1.88.76v.03c.18.07.34.19.45.36l2.11,3.36c.2.33.5.52.92.57l.25.03c.12.02.18.08.18.18,0,.13-.07.2-.21.2-.9-.04-1.45-.06-1.67-.06s-.39-.09-.51-.28l-2.37-3.93c-.19-.29-.39-.43-.62-.43h-1.02c-.14,0-.21.06-.21.17v3.56c0,.17.06.3.18.41.12.1.27.16.45.17l.59.03c.1,0,.15.06.15.19s-.07.19-.2.19l-1.75-.06-1.55.06c-.12,0-.19-.06-.21-.17,0-.13.06-.2.17-.21l.41-.03c.38-.03.57-.22.57-.57v-7.95c0-.34-.21-.52-.64-.56l-.41-.04c-.1-.02-.15-.08-.15-.18,0-.13.07-.2.2-.2l1.93.06h2.62Zm1.14,3.98c.43-.36.65-.83.65-1.42s-.21-1.06-.64-1.41c-.43-.35-.97-.52-1.62-.52h-1.32c-.37,0-.56.19-.56.56v3.15c0,.12.05.18.15.18h1.72c.64,0,1.18-.18,1.62-.54Z"/>
        <path class="cls-2" d="m99.02,267.82c-.02.06-.03.12-.03.19s.04.15.11.24.18.14.31.15l.31.03c.12.02.18.08.18.18,0,.13-.07.2-.21.2l-1.22-.06-1.27.06c-.13,0-.2-.06-.2-.19s.05-.19.15-.19l.27-.03c.4-.05.67-.24.81-.57l3.6-8.86c.04-.11.15-.17.33-.17s.3.06.34.17l3.58,8.86c.12.34.39.54.8.57l.29.03s.07.02.1.06c.03.04.04.08.04.11,0,.14-.07.21-.2.21l-1.61-.06-1.44.06c-.13,0-.2-.06-.2-.17,0-.13.06-.2.17-.21l.32-.03c.12,0,.22-.06.3-.14s.12-.16.12-.24-.01-.14-.04-.2l-.83-2.14c-.03-.09-.1-.14-.22-.14h-3.63c-.11,0-.19.05-.22.14l-.83,2.14Zm1.3-2.93h3.12c.1,0,.14-.06.1-.17l-1.67-4.28-1.67,4.31c-.03.09,0,.14.11.14Z"/>
        <path class="cls-2" d="m113.52,259.97v7.85c0,.17.06.3.18.4.12.1.27.16.45.17l.41.03c.11,0,.17.06.17.18,0,.06-.02.1-.06.14s-.09.06-.13.06l-1.58-.06-1.74.06s-.09-.02-.13-.06-.06-.08-.06-.14c0-.12.06-.18.17-.18l.52-.03c.18-.02.33-.08.45-.17.12-.1.18-.23.18-.4v-7.85c0-.25-.12-.38-.35-.38h-1.18c-.46,0-.82.12-1.08.37s-.47.61-.62,1.1c-.06.14-.13.21-.23.21s-.17-.03-.22-.08c-.05-.05-.07-.11-.06-.17l.11-1.81c.02-.18.12-.27.31-.27h7.76c.2,0,.3.11.32.34l.14,1.74c0,.08,0,.14-.06.18s-.12.07-.22.07-.18-.07-.23-.21c-.17-.49-.38-.86-.64-1.11-.26-.24-.61-.36-1.06-.36h-1.18c-.23,0-.35.13-.35.38Z"/>
        <path class="cls-2" d="m120.09,268.8c-.13,0-.2-.06-.2-.17s.05-.18.15-.2l.24-.03c.38-.05.57-.24.57-.57v-7.95c0-.34-.21-.52-.64-.56l-.41-.04c-.1-.02-.15-.08-.15-.18,0-.13.07-.2.2-.2l1.58.06,1.39-.06c.14,0,.21.06.21.17,0,.13-.06.2-.18.21l-.24.04c-.37.07-.56.25-.56.56v7.95c0,.17.06.3.18.4.12.1.27.16.45.17l.41.03c.11,0,.17.06.17.18,0,.06-.02.1-.06.14s-.09.06-.13.06l-1.58-.06-1.39.06Z"/>
        <path class="cls-2" d="m132.61,259.08c0-.13.07-.2.21-.2l1.22.06,1.27-.06c.13,0,.2.06.2.19s-.05.19-.15.19l-.27.03c-.42.05-.69.24-.81.57l-3.46,8.86c-.04.11-.14.17-.31.17s-.28-.06-.33-.17l-3.44-8.86c-.14-.35-.41-.55-.8-.57l-.29-.03s-.07-.02-.1-.06c-.03-.04-.04-.07-.04-.11,0-.14.07-.21.2-.21l1.47.06,1.55-.06c.13,0,.2.06.2.17,0,.13-.06.2-.17.21l-.32.03c-.16,0-.27.08-.34.2-.07.12-.08.25-.03.38l2.69,7.34,2.76-7.34c.06-.14.05-.27-.02-.39-.07-.12-.19-.18-.37-.19l-.31-.03c-.12-.02-.18-.08-.18-.18Z"/>
        <path class="cls-2" d="m144.77,268.75h-5.25l-1.58.06c-.13,0-.2-.06-.2-.19s.05-.19.15-.19l.41-.03c.19-.02.34-.08.46-.17.12-.1.18-.23.18-.4v-7.95c0-.34-.21-.52-.64-.56l-.41-.04c-.1,0-.15-.06-.15-.19s.07-.19.2-.19l1.58.06h4.97c.18,0,.32.05.43.16.11.11.18.24.2.4l.2,1.29c.02.17-.05.25-.2.25s-.25-.07-.3-.22c-.14-.45-.35-.77-.63-.95-.28-.19-.67-.28-1.16-.28h-2.2c-.21,0-.37.06-.5.17-.13.12-.19.28-.19.48v2.94c0,.12.06.18.18.18h2.6c.13,0,.23-.03.31-.1.07-.06.12-.13.15-.18s.06-.16.11-.31l.06-.18c.03-.11.1-.17.21-.17s.17.07.17.2l-.06,1.19.06,1.13c0,.12-.06.19-.18.21-.11,0-.18-.06-.2-.17l-.04-.25c-.08-.49-.28-.73-.57-.73h-2.62c-.11,0-.17.07-.17.2v3.25c0,.2.06.35.19.47.13.12.29.17.5.17h2.31c.49,0,.9-.12,1.25-.36.35-.24.6-.59.74-1.04.05-.15.12-.22.23-.22s.18.03.22.08c.04.05.06.11.05.17l-.22,1.46c-.02.16-.09.29-.2.4-.12.11-.26.16-.43.16Z"/>
        <path class="cls-2" d="m166.43,268.6c0,.06-.02.1-.06.14s-.09.06-.13.06l-1.58-.06-1.39.06c-.13,0-.2-.06-.2-.17s.05-.18.15-.2l.24-.03c.39-.05.59-.24.59-.57l-.11-6.62c0-.09-.03-.14-.08-.14-.03,0-.05.01-.06.04l-3.81,7.62c-.05.08-.1.13-.17.13s-.12-.04-.15-.13l-3.82-7.39s-.03-.04-.06-.04c-.06,0-.08.05-.08.14l-.08,6.4c0,.31.19.49.56.56l.24.04c.12.02.18.08.18.2s-.07.17-.21.17l-1.15-.04-1.36.04c-.13,0-.2-.06-.2-.17s.05-.18.15-.2l.41-.04c.43-.05.64-.23.64-.56l.17-7.95c0-.33-.18-.51-.56-.56l-.25-.03c-.11-.02-.17-.09-.17-.2s.07-.17.21-.17l1.23.04c.32,0,.52.1.6.28l3.96,7.84,3.86-7.84c.08-.17.29-.26.62-.28l1.25-.04c.15,0,.22.06.22.17s-.06.18-.17.2l-.25.03c-.36.03-.55.21-.55.56l.17,7.95c0,.17.06.3.18.4.12.1.26.16.44.17l.41.03c.11,0,.17.06.17.18Z"/>
        <path class="cls-2" d="m170.62,267.82c-.02.06-.03.12-.03.19s.04.15.11.24c.08.09.18.14.31.15l.31.03c.12.02.18.08.18.18,0,.13-.07.2-.21.2l-1.22-.06-1.27.06c-.13,0-.2-.06-.2-.19s.05-.19.15-.19l.27-.03c.4-.05.67-.24.81-.57l3.6-8.86c.04-.11.15-.17.33-.17s.3.06.34.17l3.58,8.86c.12.34.39.54.8.57l.29.03s.07.02.1.06c.03.04.04.08.04.11,0,.14-.07.21-.2.21l-1.61-.06-1.44.06c-.13,0-.2-.06-.2-.17,0-.13.06-.2.17-.21l.32-.03c.12,0,.22-.06.3-.14s.12-.16.12-.24-.01-.14-.04-.2l-.83-2.14c-.03-.09-.1-.14-.22-.14h-3.63c-.11,0-.19.05-.22.14l-.83,2.14Zm1.3-2.93h3.12c.1,0,.14-.06.1-.17l-1.67-4.28-1.67,4.31c-.03.09,0,.14.11.14Z"/>
        <path class="cls-2" d="m189.32,266.66v-6.79c0-.33-.21-.51-.63-.56l-.41-.04c-.1-.02-.15-.08-.15-.2s.06-.17.2-.17l1.36.04,1.09-.04c.14,0,.21.06.21.17s-.06.18-.18.2l-.24.04c-.37.07-.56.25-.56.56v8.86c0,.11-.05.17-.15.17h-.18c-.23,0-.43-.11-.6-.34l-5.89-7.55s-.05-.03-.08-.03-.06.05-.06.14v6.69c0,.31.19.49.56.56l.24.04c.12.02.18.08.18.2s-.07.17-.21.17l-1.09-.04-1.36.04c-.13,0-.2-.06-.2-.17s.05-.18.15-.2l.41-.04c.43-.05.64-.23.64-.56v-7.95c0-.33-.19-.51-.56-.56l-.25-.03c-.11-.02-.17-.09-.17-.2s.07-.17.21-.17l1.12.04c.27,0,.48.1.62.27l5.84,7.49s.06.04.1.04.06-.03.06-.08Z"/>
        <path class="cls-2" d="m195.24,267.82c-.02.06-.03.12-.03.19s.04.15.11.24c.07.09.18.14.31.15l.31.03c.12.02.18.08.18.18,0,.13-.07.2-.21.2l-1.22-.06-1.27.06c-.13,0-.2-.06-.2-.19s.05-.19.15-.19l.27-.03c.4-.05.67-.24.81-.57l3.6-8.86c.04-.11.15-.17.33-.17s.3.06.34.17l3.58,8.86c.12.34.39.54.8.57l.29.03s.07.02.1.06c.03.04.04.08.04.11,0,.14-.07.21-.2.21l-1.61-.06-1.44.06c-.13,0-.2-.06-.2-.17,0-.13.06-.2.17-.21l.32-.03c.12,0,.22-.06.3-.14.08-.08.12-.16.12-.24s-.01-.14-.04-.2l-.83-2.14c-.03-.09-.1-.14-.22-.14h-3.63c-.11,0-.19.05-.22.14l-.83,2.14Zm1.3-2.93h3.12c.1,0,.14-.06.1-.17l-1.67-4.28-1.67,4.31c-.03.09,0,.14.11.14Z"/>
        <path class="cls-2" d="m210.78,258.79c.78,0,1.5.11,2.13.32.64.21.96.42.96.63v1.6c0,.07-.02.13-.06.19-.04.06-.1.09-.16.09-.16,0-.26-.09-.31-.28-.17-.62-.48-1.12-.94-1.47s-1-.53-1.62-.53c-1.16,0-2.08.39-2.76,1.16-.69.77-1.03,1.76-1.03,2.95,0,.78.15,1.54.46,2.27.31.73.75,1.33,1.32,1.8.57.47,1.21.71,1.9.71s1.28-.14,1.76-.43c.48-.28.72-.59.72-.9v-1.74c0-.35-.21-.54-.63-.56l-.76-.04c-.1,0-.15-.06-.15-.19s.06-.19.18-.19l1.9.06,1.39-.06c.13,0,.2.06.2.17,0,.13-.06.2-.17.21l-.24.04c-.37.07-.56.25-.56.56v2.7l.08.78c.02.17-.05.25-.21.25-.1,0-.19-.06-.25-.18-.15-.34-.4-.5-.74-.5-.07,0-.21.06-.42.17-.63.35-1.38.52-2.24.52-1.46,0-2.64-.48-3.54-1.44s-1.36-2.17-1.36-3.62.48-2.66,1.43-3.61c.95-.96,2.19-1.43,3.71-1.43Z"/>
        <path class="cls-2" d="m224.98,268.75h-5.25l-1.58.06c-.13,0-.2-.06-.2-.19s.05-.19.15-.19l.41-.03c.19-.02.34-.08.46-.17.12-.1.18-.23.18-.4v-7.95c0-.34-.21-.52-.64-.56l-.41-.04c-.1,0-.15-.06-.15-.19s.07-.19.2-.19l1.58.06h4.97c.18,0,.32.05.43.16.11.11.18.24.2.4l.2,1.29c.02.17-.05.25-.2.25s-.25-.07-.3-.22c-.14-.45-.35-.77-.63-.95-.28-.19-.67-.28-1.16-.28h-2.2c-.21,0-.37.06-.5.17-.13.12-.19.28-.19.48v2.94c0,.12.06.18.18.18h2.6c.13,0,.23-.03.31-.1.07-.06.12-.13.15-.18s.06-.16.11-.31l.06-.18c.03-.11.1-.17.21-.17s.17.07.17.2l-.06,1.19.06,1.13c0,.12-.06.19-.18.21-.11,0-.18-.06-.2-.17l-.04-.25c-.08-.49-.28-.73-.57-.73h-2.62c-.11,0-.17.07-.17.2v3.25c0,.2.06.35.19.47.13.12.29.17.5.17h2.31c.49,0,.9-.12,1.25-.36.35-.24.59-.59.73-1.04.05-.15.12-.22.23-.22s.18.03.22.08c.04.05.06.11.05.17l-.22,1.46c-.02.16-.09.29-.2.4-.12.11-.26.16-.43.16Z"/>
        <path class="cls-2" d="m241.46,268.6c0,.06-.02.1-.06.14s-.09.06-.13.06l-1.58-.06-1.39.06c-.13,0-.2-.06-.2-.17s.05-.18.15-.2l.24-.03c.39-.05.59-.24.59-.57l-.11-6.62c0-.09-.03-.14-.08-.14-.03,0-.05.01-.06.04l-3.81,7.62c-.05.08-.1.13-.17.13s-.12-.04-.15-.13l-3.82-7.39s-.03-.04-.06-.04c-.06,0-.08.05-.08.14l-.08,6.4c0,.31.19.49.56.56l.24.04c.12.02.18.08.18.2s-.07.17-.21.17l-1.15-.04-1.36.04c-.13,0-.2-.06-.2-.17s.05-.18.15-.2l.41-.04c.43-.05.64-.23.64-.56l.17-7.95c0-.33-.18-.51-.56-.56l-.25-.03c-.11-.02-.17-.09-.17-.2s.07-.17.21-.17l1.23.04c.32,0,.52.1.6.28l3.96,7.84,3.86-7.84c.08-.17.29-.26.62-.28l1.25-.04c.15,0,.22.06.22.17s-.06.18-.17.2l-.25.03c-.36.03-.55.21-.55.56l.17,7.95c0,.17.06.3.17.4.12.1.26.16.44.17l.41.03c.11,0,.17.06.17.18Z"/>
        <path class="cls-2" d="m251.21,268.75h-5.25l-1.58.06c-.13,0-.2-.06-.2-.19s.05-.19.15-.19l.41-.03c.19-.02.34-.08.46-.17.12-.1.18-.23.18-.4v-7.95c0-.34-.21-.52-.64-.56l-.41-.04c-.1,0-.15-.06-.15-.19s.07-.19.2-.19l1.58.06h4.97c.18,0,.32.05.43.16.11.11.18.24.2.4l.2,1.29c.02.17-.05.25-.2.25s-.25-.07-.3-.22c-.14-.45-.35-.77-.63-.95-.28-.19-.67-.28-1.16-.28h-2.2c-.21,0-.37.06-.5.17-.13.12-.19.28-.19.48v2.94c0,.12.06.18.18.18h2.6c.13,0,.23-.03.31-.1.07-.06.12-.13.15-.18s.06-.16.11-.31l.06-.18c.03-.11.1-.17.21-.17s.17.07.17.2l-.06,1.19.06,1.13c0,.12-.06.19-.18.21-.11,0-.18-.06-.2-.17l-.04-.25c-.08-.49-.28-.73-.57-.73h-2.62c-.11,0-.17.07-.17.2v3.25c0,.2.06.35.19.47.13.12.29.17.5.17h2.31c.49,0,.9-.12,1.25-.36.35-.24.59-.59.73-1.04.05-.15.12-.22.23-.22s.18.03.22.08c.04.05.06.11.05.17l-.22,1.46c-.02.16-.09.29-.2.4-.12.11-.26.16-.43.16Z"/>
        <path class="cls-2" d="m263.18,266.66v-6.79c0-.33-.21-.51-.63-.56l-.41-.04c-.1-.02-.15-.08-.15-.2s.07-.17.2-.17l1.36.04,1.09-.04c.14,0,.21.06.21.17s-.06.18-.18.2l-.24.04c-.37.07-.56.25-.56.56v8.86c0,.11-.05.17-.15.17h-.18c-.23,0-.43-.11-.6-.34l-5.89-7.55s-.05-.03-.08-.03-.06.05-.06.14v6.69c0,.31.19.49.56.56l.24.04c.12.02.18.08.18.2s-.07.17-.21.17l-1.09-.04-1.36.04c-.13,0-.2-.06-.2-.17s.05-.18.15-.2l.41-.04c.43-.05.64-.23.64-.56v-7.95c0-.33-.19-.51-.56-.56l-.25-.03c-.11-.02-.17-.09-.17-.2s.07-.17.21-.17l1.12.04c.27,0,.48.1.62.27l5.84,7.49s.06.04.1.04.06-.03.06-.08Z"/>
        <path class="cls-2" d="m272.17,259.97v7.85c0,.17.06.3.18.4.12.1.27.16.45.17l.41.03c.11,0,.17.06.17.18,0,.06-.02.1-.06.14s-.09.06-.13.06l-1.58-.06-1.74.06s-.09-.02-.13-.06-.06-.08-.06-.14c0-.12.06-.18.17-.18l.52-.03c.18-.02.33-.08.45-.17.12-.1.18-.23.18-.4v-7.85c0-.25-.12-.38-.35-.38h-1.18c-.46,0-.82.12-1.08.37-.26.25-.47.61-.62,1.1-.06.14-.13.21-.23.21s-.17-.03-.22-.08c-.05-.05-.07-.11-.06-.17l.11-1.81c.02-.18.12-.27.31-.27h7.76c.2,0,.3.11.32.34l.14,1.74c0,.08,0,.14-.06.18-.05.05-.12.07-.22.07s-.17-.07-.23-.21c-.17-.49-.38-.86-.64-1.11-.26-.24-.61-.36-1.06-.36h-1.18c-.23,0-.35.13-.35.38Z"/>
      </g>
    </g>
  </g>
</svg>