<?xml version="1.0" encoding="UTF-8"?>
<svg id="Calque_2" data-name="Calque 2" xmlns="http://www.w3.org/2000/svg" viewBox="0 0 606.16 539.36">
  <defs>
    <style>
      .cls-1 {
        fill: none;
        stroke: #b9880a;
        stroke-miterlimit: 10;
        stroke-width: 5px;
      }
    </style>
  </defs>
  <g id="Calque_2-2" data-name="Calque 2">
    <path class="cls-1" d="m1.73,378.04c6.92-6.62,20.38-17.64,36-17.61,19.24.04,25.2,2.54,37.89-.43,28.24-6.61,47.2-26.38,54.07-50.83,4.23-15.03.4-14.95,8.61-32.48,14.48-30.91,47.66-38.32,51.13-38.74,30.26-3.65,28.12,2.93,51.16-4.17,3.78-1.17,24.82-9.09,38.71-30.39,8.6-13.2,6.52-27.13,15.13-48.52,1.4-3.49,11.21-24.39,36.25-35.52,11.59-5.15,21.89-6.33,38.88-6.22,16.76.11,23.9-.66,32.09-3.91,16.37-6.5,26.5-18.31,30.06-23.13,5.76-7.79,8.84-13.24,10.96-20.35.17-.58,5.08-31.11,14.29-44.44,3.57-5.17,9.9-14.23,22.5-18.96"/>
    <path class="cls-1" d="m26.78,409.86c6.92-6.62,20.38-17.64,36-17.61,19.24.04,25.2,2.54,37.89-.43,28.24-6.61,47.2-26.38,54.07-50.83,4.23-15.03.4-14.95,8.61-32.48,14.48-30.91,47.66-38.32,51.13-38.74,30.26-3.65,28.12,2.93,51.16-4.17,3.78-1.17,24.82-9.09,38.71-30.39,8.6-13.2,6.52-27.13,15.13-48.52,1.4-3.49,11.21-24.39,36.25-35.52,11.59-5.15,21.89-6.33,38.88-6.22,16.76.11,23.9-.66,32.09-3.91,16.37-6.5,26.5-18.31,30.06-23.13,5.76-7.79,9.61-15.33,10.96-20.35.16-.59,5.08-31.11,14.29-44.44,3.57-5.17,9.9-14.23,22.5-18.96"/>
    <path class="cls-1" d="m54.42,440.38c6.92-6.62,20.38-17.64,36-17.61,19.24.04,25.2,2.54,37.89-.43,28.24-6.61,47.2-26.38,54.07-50.83,4.23-15.03.4-14.95,8.61-32.48,14.48-30.91,47.66-38.32,51.13-38.74,30.26-3.65,28.12,2.93,51.16-4.17,3.78-1.17,24.82-9.09,38.71-30.39,8.6-13.2,6.52-27.13,15.13-48.52,1.4-3.49,11.21-24.39,36.25-35.52,11.59-5.15,21.89-6.33,38.88-6.22,16.76.11,23.9-.66,32.09-3.91,16.37-6.5,26.5-18.31,30.06-23.13,5.76-7.79,7.21-9.85,10.96-20.35.2-.57,5.08-31.11,14.29-44.44,3.57-5.17,9.9-14.23,22.5-18.96"/>
    <path class="cls-1" d="m78.88,473.58c6.92-6.62,20.38-17.64,36-17.61,19.24.04,25.2,2.54,37.89-.43,28.24-6.61,47.2-26.38,54.07-50.83,4.23-15.03.4-14.95,8.61-32.48,14.48-30.91,47.66-38.32,51.13-38.74,30.26-3.65,28.12,2.93,51.16-4.17,3.78-1.17,24.82-9.09,38.71-30.39,8.6-13.2,6.52-27.13,15.13-48.52,1.4-3.49,11.21-24.39,36.25-35.52,11.59-5.15,21.89-6.33,38.88-6.22,16.76.11,23.9-.66,32.09-3.91,16.37-6.5,26.5-18.31,30.06-23.13,5.76-7.79,8.18-12.52,10.96-20.35.2-.57,5.08-31.11,14.29-44.44,3.57-5.17,9.9-14.23,22.5-18.96"/>
    <path class="cls-1" d="m103.26,505.31c6.92-6.62,20.38-17.64,36-17.61,19.24.04,25.2,2.54,37.89-.43,28.24-6.61,47.2-26.38,54.07-50.83,4.23-15.03.4-14.95,8.61-32.48,14.48-30.91,47.66-38.32,51.13-38.74,30.26-3.65,28.12,2.93,51.16-4.17,3.78-1.17,24.82-9.09,38.71-30.39,8.6-13.2,6.52-27.13,15.13-48.52,1.4-3.49,11.21-24.39,36.25-35.52,11.59-5.15,21.89-6.33,38.88-6.22,16.76.11,23.9-.66,32.09-3.91,16.37-6.5,26.5-18.31,30.06-23.13,5.76-7.79,9.04-13.92,10.41-19.01.16-.59,5.62-32.45,14.83-45.77,3.57-5.17,9.9-14.23,22.5-18.96"/>
    <path class="cls-1" d="m127.57,537.56c6.92-6.62,20.38-17.64,36-17.61,19.24.04,25.2,2.54,37.89-.43,28.24-6.61,47.2-26.38,54.07-50.83,4.23-15.03.4-14.95,8.61-32.48,14.48-30.91,47.66-38.32,51.13-38.74,30.26-3.65,28.12,2.93,51.16-4.17,3.78-1.17,24.82-9.09,38.71-30.39,8.6-13.2,6.52-27.13,15.13-48.52,1.4-3.49,11.21-24.39,36.25-35.52,11.59-5.15,21.89-6.33,38.88-6.22,16.76.11,23.9-.66,32.09-3.91,16.37-6.5,26.25-18.5,30.06-23.13,5.56-6.75,8.64-9.28,10.96-20.35.12-.6,5.08-31.11,14.29-44.44,3.57-5.17,9.9-14.23,22.5-18.96"/>
  </g>
</svg>